<mxfile host="Electron" modified="2023-05-18T16:03:01.661Z" agent="Mozilla/5.0 (Windows NT 10.0; Win64; x64) AppleWebKit/537.36 (KHTML, like Gecko) draw.io/21.2.8 Chrome/112.0.5615.165 Electron/24.2.0 Safari/537.36" etag="Ws6zU3TC2g-ZqUpwlr4d" version="21.2.8" type="device">
  <diagram name="第 1 页" id="uvvR4a0BL_GpwLFcDYHg">
    <mxGraphModel dx="3420" dy="1506" grid="1" gridSize="10" guides="1" tooltips="1" connect="1" arrows="1" fold="1" page="1" pageScale="1" pageWidth="827" pageHeight="1169" math="0" shadow="0">
      <root>
        <mxCell id="0" />
        <mxCell id="1" parent="0" />
        <mxCell id="tsIfKAhvuY_Tdo2SYI6--321" style="edgeStyle=orthogonalEdgeStyle;curved=1;rounded=0;orthogonalLoop=1;jettySize=auto;html=1;exitX=1;exitY=1;exitDx=0;exitDy=0;" edge="1" parent="1" source="tsIfKAhvuY_Tdo2SYI6--1" target="tsIfKAhvuY_Tdo2SYI6--318">
          <mxGeometry relative="1" as="geometry" />
        </mxCell>
        <mxCell id="tsIfKAhvuY_Tdo2SYI6--1" value="&lt;font style=&quot;font-size: 24px;&quot;&gt;*hmap&lt;/font&gt;" style="rounded=1;whiteSpace=wrap;html=1;" vertex="1" parent="1">
          <mxGeometry x="-800" y="80" width="100" height="50" as="geometry" />
        </mxCell>
        <mxCell id="tsIfKAhvuY_Tdo2SYI6--56" value="" style="shape=table;startSize=0;container=1;collapsible=0;childLayout=tableLayout;" vertex="1" parent="1">
          <mxGeometry x="-103" y="112" width="93" height="320" as="geometry" />
        </mxCell>
        <mxCell id="tsIfKAhvuY_Tdo2SYI6--57" value="" style="shape=tableRow;horizontal=0;startSize=0;swimlaneHead=0;swimlaneBody=0;strokeColor=inherit;top=0;left=0;bottom=0;right=0;collapsible=0;dropTarget=0;fillColor=none;points=[[0,0.5],[1,0.5]];portConstraint=eastwest;" vertex="1" parent="tsIfKAhvuY_Tdo2SYI6--56">
          <mxGeometry width="93" height="40" as="geometry" />
        </mxCell>
        <mxCell id="tsIfKAhvuY_Tdo2SYI6--58" value="&lt;font style=&quot;font-size: 18px;&quot;&gt;count&lt;/font&gt;" style="shape=partialRectangle;html=1;whiteSpace=wrap;connectable=0;strokeColor=inherit;overflow=hidden;fillColor=none;top=0;left=0;bottom=0;right=0;pointerEvents=1;" vertex="1" parent="tsIfKAhvuY_Tdo2SYI6--57">
          <mxGeometry width="93" height="40" as="geometry">
            <mxRectangle width="93" height="40" as="alternateBounds" />
          </mxGeometry>
        </mxCell>
        <mxCell id="tsIfKAhvuY_Tdo2SYI6--59" value="" style="shape=tableRow;horizontal=0;startSize=0;swimlaneHead=0;swimlaneBody=0;strokeColor=inherit;top=0;left=0;bottom=0;right=0;collapsible=0;dropTarget=0;fillColor=none;points=[[0,0.5],[1,0.5]];portConstraint=eastwest;" vertex="1" parent="tsIfKAhvuY_Tdo2SYI6--56">
          <mxGeometry y="40" width="93" height="40" as="geometry" />
        </mxCell>
        <mxCell id="tsIfKAhvuY_Tdo2SYI6--60" value="&lt;font style=&quot;font-size: 18px;&quot;&gt;flag&lt;/font&gt;" style="shape=partialRectangle;html=1;whiteSpace=wrap;connectable=0;strokeColor=inherit;overflow=hidden;fillColor=none;top=0;left=0;bottom=0;right=0;pointerEvents=1;" vertex="1" parent="tsIfKAhvuY_Tdo2SYI6--59">
          <mxGeometry width="93" height="40" as="geometry">
            <mxRectangle width="93" height="40" as="alternateBounds" />
          </mxGeometry>
        </mxCell>
        <mxCell id="tsIfKAhvuY_Tdo2SYI6--61" value="" style="shape=tableRow;horizontal=0;startSize=0;swimlaneHead=0;swimlaneBody=0;strokeColor=inherit;top=0;left=0;bottom=0;right=0;collapsible=0;dropTarget=0;fillColor=none;points=[[0,0.5],[1,0.5]];portConstraint=eastwest;" vertex="1" parent="tsIfKAhvuY_Tdo2SYI6--56">
          <mxGeometry y="80" width="93" height="40" as="geometry" />
        </mxCell>
        <mxCell id="tsIfKAhvuY_Tdo2SYI6--62" value="&lt;font style=&quot;font-size: 18px;&quot;&gt;B=5&lt;/font&gt;" style="shape=partialRectangle;html=1;whiteSpace=wrap;connectable=0;strokeColor=inherit;overflow=hidden;fillColor=none;top=0;left=0;bottom=0;right=0;pointerEvents=1;" vertex="1" parent="tsIfKAhvuY_Tdo2SYI6--61">
          <mxGeometry width="93" height="40" as="geometry">
            <mxRectangle width="93" height="40" as="alternateBounds" />
          </mxGeometry>
        </mxCell>
        <mxCell id="tsIfKAhvuY_Tdo2SYI6--63" value="" style="shape=tableRow;horizontal=0;startSize=0;swimlaneHead=0;swimlaneBody=0;strokeColor=inherit;top=0;left=0;bottom=0;right=0;collapsible=0;dropTarget=0;fillColor=none;points=[[0,0.5],[1,0.5]];portConstraint=eastwest;" vertex="1" parent="tsIfKAhvuY_Tdo2SYI6--56">
          <mxGeometry y="120" width="93" height="40" as="geometry" />
        </mxCell>
        <mxCell id="tsIfKAhvuY_Tdo2SYI6--64" value="&lt;font style=&quot;font-size: 12px;&quot;&gt;nextoverfolw=1&lt;/font&gt;" style="shape=partialRectangle;html=1;whiteSpace=wrap;connectable=0;strokeColor=inherit;overflow=hidden;fillColor=none;top=0;left=0;bottom=0;right=0;pointerEvents=1;" vertex="1" parent="tsIfKAhvuY_Tdo2SYI6--63">
          <mxGeometry width="93" height="40" as="geometry">
            <mxRectangle width="93" height="40" as="alternateBounds" />
          </mxGeometry>
        </mxCell>
        <mxCell id="tsIfKAhvuY_Tdo2SYI6--65" value="" style="shape=tableRow;horizontal=0;startSize=0;swimlaneHead=0;swimlaneBody=0;strokeColor=inherit;top=0;left=0;bottom=0;right=0;collapsible=0;dropTarget=0;fillColor=none;points=[[0,0.5],[1,0.5]];portConstraint=eastwest;" vertex="1" parent="tsIfKAhvuY_Tdo2SYI6--56">
          <mxGeometry y="160" width="93" height="40" as="geometry" />
        </mxCell>
        <mxCell id="tsIfKAhvuY_Tdo2SYI6--66" value="" style="shape=partialRectangle;html=1;whiteSpace=wrap;connectable=0;strokeColor=inherit;overflow=hidden;fillColor=none;top=0;left=0;bottom=0;right=0;pointerEvents=1;" vertex="1" parent="tsIfKAhvuY_Tdo2SYI6--65">
          <mxGeometry width="93" height="40" as="geometry">
            <mxRectangle width="93" height="40" as="alternateBounds" />
          </mxGeometry>
        </mxCell>
        <mxCell id="tsIfKAhvuY_Tdo2SYI6--67" value="" style="shape=tableRow;horizontal=0;startSize=0;swimlaneHead=0;swimlaneBody=0;strokeColor=inherit;top=0;left=0;bottom=0;right=0;collapsible=0;dropTarget=0;fillColor=none;points=[[0,0.5],[1,0.5]];portConstraint=eastwest;" vertex="1" parent="tsIfKAhvuY_Tdo2SYI6--56">
          <mxGeometry y="200" width="93" height="40" as="geometry" />
        </mxCell>
        <mxCell id="tsIfKAhvuY_Tdo2SYI6--68" value="&lt;font style=&quot;font-size: 18px;&quot;&gt;bucket&lt;/font&gt;" style="shape=partialRectangle;html=1;whiteSpace=wrap;connectable=0;strokeColor=inherit;overflow=hidden;fillColor=none;top=0;left=0;bottom=0;right=0;pointerEvents=1;" vertex="1" parent="tsIfKAhvuY_Tdo2SYI6--67">
          <mxGeometry width="93" height="40" as="geometry">
            <mxRectangle width="93" height="40" as="alternateBounds" />
          </mxGeometry>
        </mxCell>
        <mxCell id="tsIfKAhvuY_Tdo2SYI6--69" value="" style="shape=tableRow;horizontal=0;startSize=0;swimlaneHead=0;swimlaneBody=0;strokeColor=inherit;top=0;left=0;bottom=0;right=0;collapsible=0;dropTarget=0;fillColor=none;points=[[0,0.5],[1,0.5]];portConstraint=eastwest;" vertex="1" parent="tsIfKAhvuY_Tdo2SYI6--56">
          <mxGeometry y="240" width="93" height="40" as="geometry" />
        </mxCell>
        <mxCell id="tsIfKAhvuY_Tdo2SYI6--70" value="" style="shape=partialRectangle;html=1;whiteSpace=wrap;connectable=0;strokeColor=inherit;overflow=hidden;fillColor=none;top=0;left=0;bottom=0;right=0;pointerEvents=1;" vertex="1" parent="tsIfKAhvuY_Tdo2SYI6--69">
          <mxGeometry width="93" height="40" as="geometry">
            <mxRectangle width="93" height="40" as="alternateBounds" />
          </mxGeometry>
        </mxCell>
        <mxCell id="tsIfKAhvuY_Tdo2SYI6--71" value="" style="shape=tableRow;horizontal=0;startSize=0;swimlaneHead=0;swimlaneBody=0;strokeColor=inherit;top=0;left=0;bottom=0;right=0;collapsible=0;dropTarget=0;fillColor=none;points=[[0,0.5],[1,0.5]];portConstraint=eastwest;" vertex="1" parent="tsIfKAhvuY_Tdo2SYI6--56">
          <mxGeometry y="280" width="93" height="40" as="geometry" />
        </mxCell>
        <mxCell id="tsIfKAhvuY_Tdo2SYI6--72" value="" style="shape=partialRectangle;html=1;whiteSpace=wrap;connectable=0;strokeColor=inherit;overflow=hidden;fillColor=none;top=0;left=0;bottom=0;right=0;pointerEvents=1;" vertex="1" parent="tsIfKAhvuY_Tdo2SYI6--71">
          <mxGeometry width="93" height="40" as="geometry">
            <mxRectangle width="93" height="40" as="alternateBounds" />
          </mxGeometry>
        </mxCell>
        <mxCell id="tsIfKAhvuY_Tdo2SYI6--73" value="" style="shape=table;startSize=0;container=1;collapsible=0;childLayout=tableLayout;" vertex="1" parent="1">
          <mxGeometry x="170" y="42" width="100" height="320" as="geometry" />
        </mxCell>
        <mxCell id="tsIfKAhvuY_Tdo2SYI6--76" value="" style="shape=tableRow;horizontal=0;startSize=0;swimlaneHead=0;swimlaneBody=0;strokeColor=inherit;top=0;left=0;bottom=0;right=0;collapsible=0;dropTarget=0;fillColor=none;points=[[0,0.5],[1,0.5]];portConstraint=eastwest;" vertex="1" parent="tsIfKAhvuY_Tdo2SYI6--73">
          <mxGeometry width="100" height="40" as="geometry" />
        </mxCell>
        <mxCell id="tsIfKAhvuY_Tdo2SYI6--77" value="&lt;font style=&quot;font-size: 18px;&quot;&gt;bmap&lt;/font&gt;" style="shape=partialRectangle;html=1;whiteSpace=wrap;connectable=0;strokeColor=inherit;overflow=hidden;fillColor=none;top=0;left=0;bottom=0;right=0;pointerEvents=1;" vertex="1" parent="tsIfKAhvuY_Tdo2SYI6--76">
          <mxGeometry width="100" height="40" as="geometry">
            <mxRectangle width="100" height="40" as="alternateBounds" />
          </mxGeometry>
        </mxCell>
        <mxCell id="tsIfKAhvuY_Tdo2SYI6--78" value="" style="shape=tableRow;horizontal=0;startSize=0;swimlaneHead=0;swimlaneBody=0;strokeColor=inherit;top=0;left=0;bottom=0;right=0;collapsible=0;dropTarget=0;fillColor=none;points=[[0,0.5],[1,0.5]];portConstraint=eastwest;" vertex="1" parent="tsIfKAhvuY_Tdo2SYI6--73">
          <mxGeometry y="40" width="100" height="40" as="geometry" />
        </mxCell>
        <mxCell id="tsIfKAhvuY_Tdo2SYI6--79" value="&lt;font style=&quot;font-size: 18px;&quot;&gt;bmap&lt;/font&gt;" style="shape=partialRectangle;html=1;whiteSpace=wrap;connectable=0;strokeColor=inherit;overflow=hidden;fillColor=none;top=0;left=0;bottom=0;right=0;pointerEvents=1;" vertex="1" parent="tsIfKAhvuY_Tdo2SYI6--78">
          <mxGeometry width="100" height="40" as="geometry">
            <mxRectangle width="100" height="40" as="alternateBounds" />
          </mxGeometry>
        </mxCell>
        <mxCell id="tsIfKAhvuY_Tdo2SYI6--80" value="" style="shape=tableRow;horizontal=0;startSize=0;swimlaneHead=0;swimlaneBody=0;strokeColor=inherit;top=0;left=0;bottom=0;right=0;collapsible=0;dropTarget=0;fillColor=none;points=[[0,0.5],[1,0.5]];portConstraint=eastwest;" vertex="1" parent="tsIfKAhvuY_Tdo2SYI6--73">
          <mxGeometry y="80" width="100" height="40" as="geometry" />
        </mxCell>
        <mxCell id="tsIfKAhvuY_Tdo2SYI6--81" value="&lt;font style=&quot;font-size: 18px;&quot;&gt;bmap&lt;/font&gt;" style="shape=partialRectangle;html=1;whiteSpace=wrap;connectable=0;strokeColor=inherit;overflow=hidden;fillColor=none;top=0;left=0;bottom=0;right=0;pointerEvents=1;" vertex="1" parent="tsIfKAhvuY_Tdo2SYI6--80">
          <mxGeometry width="100" height="40" as="geometry">
            <mxRectangle width="100" height="40" as="alternateBounds" />
          </mxGeometry>
        </mxCell>
        <mxCell id="tsIfKAhvuY_Tdo2SYI6--82" value="" style="shape=tableRow;horizontal=0;startSize=0;swimlaneHead=0;swimlaneBody=0;strokeColor=inherit;top=0;left=0;bottom=0;right=0;collapsible=0;dropTarget=0;fillColor=none;points=[[0,0.5],[1,0.5]];portConstraint=eastwest;" vertex="1" parent="tsIfKAhvuY_Tdo2SYI6--73">
          <mxGeometry y="120" width="100" height="40" as="geometry" />
        </mxCell>
        <mxCell id="tsIfKAhvuY_Tdo2SYI6--83" value="&lt;span style=&quot;color: rgb(0, 0, 0); font-family: Helvetica; font-size: 18px; font-style: normal; font-variant-ligatures: normal; font-variant-caps: normal; font-weight: 400; letter-spacing: normal; orphans: 2; text-align: center; text-indent: 0px; text-transform: none; widows: 2; word-spacing: 0px; -webkit-text-stroke-width: 0px; background-color: rgb(251, 251, 251); text-decoration-thickness: initial; text-decoration-style: initial; text-decoration-color: initial; float: none; display: inline !important;&quot;&gt;bmap&lt;/span&gt;&lt;br&gt;" style="shape=partialRectangle;html=1;whiteSpace=wrap;connectable=0;strokeColor=inherit;overflow=hidden;fillColor=none;top=0;left=0;bottom=0;right=0;pointerEvents=1;" vertex="1" parent="tsIfKAhvuY_Tdo2SYI6--82">
          <mxGeometry width="100" height="40" as="geometry">
            <mxRectangle width="100" height="40" as="alternateBounds" />
          </mxGeometry>
        </mxCell>
        <mxCell id="tsIfKAhvuY_Tdo2SYI6--91" value="0" style="text;html=1;align=center;verticalAlign=middle;resizable=0;points=[];autosize=1;strokeColor=none;fillColor=none;" vertex="1" parent="tsIfKAhvuY_Tdo2SYI6--82">
          <mxGeometry x="100" width="NaN" height="40" as="geometry">
            <mxRectangle width="NaN" height="40" as="alternateBounds" />
          </mxGeometry>
        </mxCell>
        <mxCell id="tsIfKAhvuY_Tdo2SYI6--84" value="" style="shape=tableRow;horizontal=0;startSize=0;swimlaneHead=0;swimlaneBody=0;strokeColor=inherit;top=0;left=0;bottom=0;right=0;collapsible=0;dropTarget=0;fillColor=none;points=[[0,0.5],[1,0.5]];portConstraint=eastwest;" vertex="1" parent="tsIfKAhvuY_Tdo2SYI6--73">
          <mxGeometry y="160" width="100" height="40" as="geometry" />
        </mxCell>
        <mxCell id="tsIfKAhvuY_Tdo2SYI6--85" value="" style="shape=partialRectangle;html=1;whiteSpace=wrap;connectable=0;strokeColor=inherit;overflow=hidden;fillColor=none;top=0;left=0;bottom=0;right=0;pointerEvents=1;" vertex="1" parent="tsIfKAhvuY_Tdo2SYI6--84">
          <mxGeometry width="100" height="40" as="geometry">
            <mxRectangle width="100" height="40" as="alternateBounds" />
          </mxGeometry>
        </mxCell>
        <mxCell id="tsIfKAhvuY_Tdo2SYI6--86" value="" style="shape=tableRow;horizontal=0;startSize=0;swimlaneHead=0;swimlaneBody=0;strokeColor=inherit;top=0;left=0;bottom=0;right=0;collapsible=0;dropTarget=0;fillColor=none;points=[[0,0.5],[1,0.5]];portConstraint=eastwest;" vertex="1" parent="tsIfKAhvuY_Tdo2SYI6--73">
          <mxGeometry y="200" width="100" height="40" as="geometry" />
        </mxCell>
        <mxCell id="tsIfKAhvuY_Tdo2SYI6--87" value="&lt;font style=&quot;font-size: 18px;&quot;&gt;bmap&lt;/font&gt;" style="shape=partialRectangle;html=1;whiteSpace=wrap;connectable=0;strokeColor=inherit;overflow=hidden;fillColor=none;top=0;left=0;bottom=0;right=0;pointerEvents=1;" vertex="1" parent="tsIfKAhvuY_Tdo2SYI6--86">
          <mxGeometry width="100" height="40" as="geometry">
            <mxRectangle width="100" height="40" as="alternateBounds" />
          </mxGeometry>
        </mxCell>
        <mxCell id="tsIfKAhvuY_Tdo2SYI6--88" value="" style="shape=tableRow;horizontal=0;startSize=0;swimlaneHead=0;swimlaneBody=0;strokeColor=inherit;top=0;left=0;bottom=0;right=0;collapsible=0;dropTarget=0;fillColor=none;points=[[0,0.5],[1,0.5]];portConstraint=eastwest;" vertex="1" parent="tsIfKAhvuY_Tdo2SYI6--73">
          <mxGeometry y="240" width="100" height="40" as="geometry" />
        </mxCell>
        <mxCell id="tsIfKAhvuY_Tdo2SYI6--89" value="&lt;font style=&quot;font-size: 18px;&quot;&gt;overflow&lt;/font&gt;" style="shape=partialRectangle;html=1;whiteSpace=wrap;connectable=0;strokeColor=inherit;overflow=hidden;fillColor=none;top=0;left=0;bottom=0;right=0;pointerEvents=1;" vertex="1" parent="tsIfKAhvuY_Tdo2SYI6--88">
          <mxGeometry width="100" height="40" as="geometry">
            <mxRectangle width="100" height="40" as="alternateBounds" />
          </mxGeometry>
        </mxCell>
        <mxCell id="tsIfKAhvuY_Tdo2SYI6--74" value="" style="shape=tableRow;horizontal=0;startSize=0;swimlaneHead=0;swimlaneBody=0;strokeColor=inherit;top=0;left=0;bottom=0;right=0;collapsible=0;dropTarget=0;fillColor=none;points=[[0,0.5],[1,0.5]];portConstraint=eastwest;" vertex="1" parent="tsIfKAhvuY_Tdo2SYI6--73">
          <mxGeometry y="280" width="100" height="40" as="geometry" />
        </mxCell>
        <mxCell id="tsIfKAhvuY_Tdo2SYI6--75" value="&lt;font style=&quot;font-size: 18px;&quot;&gt;overflow&lt;/font&gt;" style="shape=partialRectangle;html=1;whiteSpace=wrap;connectable=0;strokeColor=inherit;overflow=hidden;fillColor=none;top=0;left=0;bottom=0;right=0;pointerEvents=1;" vertex="1" parent="tsIfKAhvuY_Tdo2SYI6--74">
          <mxGeometry width="100" height="40" as="geometry">
            <mxRectangle width="100" height="40" as="alternateBounds" />
          </mxGeometry>
        </mxCell>
        <mxCell id="tsIfKAhvuY_Tdo2SYI6--92" value="" style="edgeStyle=orthogonalEdgeStyle;rounded=0;orthogonalLoop=1;jettySize=auto;html=1;" edge="1" parent="1" source="tsIfKAhvuY_Tdo2SYI6--90" target="tsIfKAhvuY_Tdo2SYI6--91">
          <mxGeometry relative="1" as="geometry" />
        </mxCell>
        <mxCell id="tsIfKAhvuY_Tdo2SYI6--90" value="0" style="text;html=1;align=center;verticalAlign=middle;resizable=0;points=[];autosize=1;strokeColor=none;fillColor=none;" vertex="1" parent="1">
          <mxGeometry x="285" y="40" width="30" height="30" as="geometry" />
        </mxCell>
        <mxCell id="tsIfKAhvuY_Tdo2SYI6--93" value="1" style="text;html=1;align=center;verticalAlign=middle;resizable=0;points=[];autosize=1;strokeColor=none;fillColor=none;" vertex="1" parent="1">
          <mxGeometry x="285" y="80" width="30" height="30" as="geometry" />
        </mxCell>
        <mxCell id="tsIfKAhvuY_Tdo2SYI6--183" style="edgeStyle=orthogonalEdgeStyle;rounded=0;orthogonalLoop=1;jettySize=auto;html=1;curved=1;dashed=1;entryX=0;entryY=0.5;entryDx=0;entryDy=0;" edge="1" parent="1" source="tsIfKAhvuY_Tdo2SYI6--94" target="tsIfKAhvuY_Tdo2SYI6--170">
          <mxGeometry relative="1" as="geometry">
            <mxPoint x="390" y="122" as="targetPoint" />
          </mxGeometry>
        </mxCell>
        <mxCell id="tsIfKAhvuY_Tdo2SYI6--94" value="2" style="text;html=1;align=center;verticalAlign=middle;resizable=0;points=[];autosize=1;strokeColor=none;fillColor=none;" vertex="1" parent="1">
          <mxGeometry x="285" y="130" width="30" height="30" as="geometry" />
        </mxCell>
        <mxCell id="tsIfKAhvuY_Tdo2SYI6--95" value="3" style="text;html=1;align=center;verticalAlign=middle;resizable=0;points=[];autosize=1;strokeColor=none;fillColor=none;" vertex="1" parent="1">
          <mxGeometry x="285" y="170" width="30" height="30" as="geometry" />
        </mxCell>
        <mxCell id="tsIfKAhvuY_Tdo2SYI6--96" value="..." style="text;html=1;align=center;verticalAlign=middle;resizable=0;points=[];autosize=1;strokeColor=none;fillColor=none;" vertex="1" parent="1">
          <mxGeometry x="285" y="200" width="30" height="30" as="geometry" />
        </mxCell>
        <mxCell id="tsIfKAhvuY_Tdo2SYI6--97" value="31" style="text;html=1;align=center;verticalAlign=middle;resizable=0;points=[];autosize=1;strokeColor=none;fillColor=none;" vertex="1" parent="1">
          <mxGeometry x="280" y="250" width="40" height="30" as="geometry" />
        </mxCell>
        <mxCell id="tsIfKAhvuY_Tdo2SYI6--98" value="32" style="text;html=1;align=center;verticalAlign=middle;resizable=0;points=[];autosize=1;strokeColor=none;fillColor=none;" vertex="1" parent="1">
          <mxGeometry x="280" y="292" width="40" height="30" as="geometry" />
        </mxCell>
        <mxCell id="tsIfKAhvuY_Tdo2SYI6--99" value="33" style="text;html=1;align=center;verticalAlign=middle;resizable=0;points=[];autosize=1;strokeColor=none;fillColor=none;" vertex="1" parent="1">
          <mxGeometry x="280" y="332" width="40" height="30" as="geometry" />
        </mxCell>
        <mxCell id="tsIfKAhvuY_Tdo2SYI6--100" value="2^(B-1)" style="text;html=1;align=center;verticalAlign=middle;resizable=0;points=[];autosize=1;strokeColor=none;fillColor=none;" vertex="1" parent="1">
          <mxGeometry x="320" y="300" width="60" height="30" as="geometry" />
        </mxCell>
        <mxCell id="tsIfKAhvuY_Tdo2SYI6--101" value="&lt;font style=&quot;font-size: 18px;&quot;&gt;hmap&lt;/font&gt;" style="text;html=1;align=center;verticalAlign=middle;resizable=0;points=[];autosize=1;strokeColor=none;fillColor=none;" vertex="1" parent="1">
          <mxGeometry x="-93" y="65" width="70" height="40" as="geometry" />
        </mxCell>
        <mxCell id="tsIfKAhvuY_Tdo2SYI6--102" value="" style="shape=table;startSize=0;container=1;collapsible=0;childLayout=tableLayout;" vertex="1" parent="1">
          <mxGeometry x="-103" y="572" width="93" height="120" as="geometry" />
        </mxCell>
        <mxCell id="tsIfKAhvuY_Tdo2SYI6--103" value="" style="shape=tableRow;horizontal=0;startSize=0;swimlaneHead=0;swimlaneBody=0;strokeColor=inherit;top=0;left=0;bottom=0;right=0;collapsible=0;dropTarget=0;fillColor=none;points=[[0,0.5],[1,0.5]];portConstraint=eastwest;" vertex="1" parent="tsIfKAhvuY_Tdo2SYI6--102">
          <mxGeometry width="93" height="40" as="geometry" />
        </mxCell>
        <mxCell id="tsIfKAhvuY_Tdo2SYI6--104" value="&lt;font style=&quot;font-size: 18px;&quot;&gt;overflow&lt;/font&gt;" style="shape=partialRectangle;html=1;whiteSpace=wrap;connectable=0;strokeColor=inherit;overflow=hidden;fillColor=none;top=0;left=0;bottom=0;right=0;pointerEvents=1;" vertex="1" parent="tsIfKAhvuY_Tdo2SYI6--103">
          <mxGeometry width="93" height="40" as="geometry">
            <mxRectangle width="93" height="40" as="alternateBounds" />
          </mxGeometry>
        </mxCell>
        <mxCell id="tsIfKAhvuY_Tdo2SYI6--105" value="" style="shape=tableRow;horizontal=0;startSize=0;swimlaneHead=0;swimlaneBody=0;strokeColor=inherit;top=0;left=0;bottom=0;right=0;collapsible=0;dropTarget=0;fillColor=none;points=[[0,0.5],[1,0.5]];portConstraint=eastwest;" vertex="1" parent="tsIfKAhvuY_Tdo2SYI6--102">
          <mxGeometry y="40" width="93" height="40" as="geometry" />
        </mxCell>
        <mxCell id="tsIfKAhvuY_Tdo2SYI6--106" value="oldoverflow" style="shape=partialRectangle;html=1;whiteSpace=wrap;connectable=0;strokeColor=inherit;overflow=hidden;fillColor=none;top=0;left=0;bottom=0;right=0;pointerEvents=1;" vertex="1" parent="tsIfKAhvuY_Tdo2SYI6--105">
          <mxGeometry width="93" height="40" as="geometry">
            <mxRectangle width="93" height="40" as="alternateBounds" />
          </mxGeometry>
        </mxCell>
        <mxCell id="tsIfKAhvuY_Tdo2SYI6--107" value="" style="shape=tableRow;horizontal=0;startSize=0;swimlaneHead=0;swimlaneBody=0;strokeColor=inherit;top=0;left=0;bottom=0;right=0;collapsible=0;dropTarget=0;fillColor=none;points=[[0,0.5],[1,0.5]];portConstraint=eastwest;" vertex="1" parent="tsIfKAhvuY_Tdo2SYI6--102">
          <mxGeometry y="80" width="93" height="40" as="geometry" />
        </mxCell>
        <mxCell id="tsIfKAhvuY_Tdo2SYI6--108" value="&lt;font style=&quot;font-size: 12px;&quot;&gt;nextoverflow&lt;/font&gt;" style="shape=partialRectangle;html=1;whiteSpace=wrap;connectable=0;strokeColor=inherit;overflow=hidden;fillColor=none;top=0;left=0;bottom=0;right=0;pointerEvents=1;" vertex="1" parent="tsIfKAhvuY_Tdo2SYI6--107">
          <mxGeometry width="93" height="40" as="geometry">
            <mxRectangle width="93" height="40" as="alternateBounds" />
          </mxGeometry>
        </mxCell>
        <mxCell id="tsIfKAhvuY_Tdo2SYI6--109" value="已使用的溢出桶" style="text;html=1;align=center;verticalAlign=middle;resizable=0;points=[];autosize=1;strokeColor=none;fillColor=none;" vertex="1" parent="1">
          <mxGeometry x="-235" y="572" width="110" height="30" as="geometry" />
        </mxCell>
        <mxCell id="tsIfKAhvuY_Tdo2SYI6--110" value="空闲的溢出桶" style="text;html=1;align=center;verticalAlign=middle;resizable=0;points=[];autosize=1;strokeColor=none;fillColor=none;" vertex="1" parent="1">
          <mxGeometry x="-230" y="662" width="100" height="30" as="geometry" />
        </mxCell>
        <mxCell id="tsIfKAhvuY_Tdo2SYI6--111" style="edgeStyle=orthogonalEdgeStyle;rounded=0;orthogonalLoop=1;jettySize=auto;html=1;exitX=1;exitY=0.5;exitDx=0;exitDy=0;entryX=0;entryY=0.5;entryDx=0;entryDy=0;curved=1;" edge="1" parent="1" source="tsIfKAhvuY_Tdo2SYI6--107" target="tsIfKAhvuY_Tdo2SYI6--74">
          <mxGeometry relative="1" as="geometry">
            <mxPoint x="130" y="362" as="targetPoint" />
          </mxGeometry>
        </mxCell>
        <mxCell id="tsIfKAhvuY_Tdo2SYI6--113" style="edgeStyle=orthogonalEdgeStyle;rounded=0;orthogonalLoop=1;jettySize=auto;html=1;exitX=1;exitY=0.5;exitDx=0;exitDy=0;entryX=0;entryY=0.5;entryDx=0;entryDy=0;curved=1;" edge="1" parent="1" source="tsIfKAhvuY_Tdo2SYI6--67" target="tsIfKAhvuY_Tdo2SYI6--76">
          <mxGeometry relative="1" as="geometry" />
        </mxCell>
        <mxCell id="tsIfKAhvuY_Tdo2SYI6--145" value="" style="shape=table;startSize=0;container=1;collapsible=0;childLayout=tableLayout;" vertex="1" parent="1">
          <mxGeometry x="400" y="135" width="150" height="97" as="geometry" />
        </mxCell>
        <mxCell id="tsIfKAhvuY_Tdo2SYI6--146" value="" style="shape=tableRow;horizontal=0;startSize=0;swimlaneHead=0;swimlaneBody=0;strokeColor=inherit;top=0;left=0;bottom=0;right=0;collapsible=0;dropTarget=0;fillColor=none;points=[[0,0.5],[1,0.5]];portConstraint=eastwest;" vertex="1" parent="tsIfKAhvuY_Tdo2SYI6--145">
          <mxGeometry width="150" height="24" as="geometry" />
        </mxCell>
        <mxCell id="tsIfKAhvuY_Tdo2SYI6--147" value="" style="shape=partialRectangle;html=1;whiteSpace=wrap;connectable=0;strokeColor=inherit;overflow=hidden;fillColor=none;top=0;left=0;bottom=0;right=0;pointerEvents=1;" vertex="1" parent="tsIfKAhvuY_Tdo2SYI6--146">
          <mxGeometry width="38" height="24" as="geometry">
            <mxRectangle width="38" height="24" as="alternateBounds" />
          </mxGeometry>
        </mxCell>
        <mxCell id="tsIfKAhvuY_Tdo2SYI6--148" value="" style="shape=partialRectangle;html=1;whiteSpace=wrap;connectable=0;strokeColor=inherit;overflow=hidden;fillColor=none;top=0;left=0;bottom=0;right=0;pointerEvents=1;" vertex="1" parent="tsIfKAhvuY_Tdo2SYI6--146">
          <mxGeometry x="38" width="37" height="24" as="geometry">
            <mxRectangle width="37" height="24" as="alternateBounds" />
          </mxGeometry>
        </mxCell>
        <mxCell id="tsIfKAhvuY_Tdo2SYI6--149" value="" style="shape=partialRectangle;html=1;whiteSpace=wrap;connectable=0;strokeColor=inherit;overflow=hidden;fillColor=none;top=0;left=0;bottom=0;right=0;pointerEvents=1;" vertex="1" parent="tsIfKAhvuY_Tdo2SYI6--146">
          <mxGeometry x="75" width="38" height="24" as="geometry">
            <mxRectangle width="38" height="24" as="alternateBounds" />
          </mxGeometry>
        </mxCell>
        <mxCell id="tsIfKAhvuY_Tdo2SYI6--150" value="" style="shape=partialRectangle;html=1;whiteSpace=wrap;connectable=0;strokeColor=inherit;overflow=hidden;fillColor=none;top=0;left=0;bottom=0;right=0;pointerEvents=1;" vertex="1" parent="tsIfKAhvuY_Tdo2SYI6--146">
          <mxGeometry x="113" width="37" height="24" as="geometry">
            <mxRectangle width="37" height="24" as="alternateBounds" />
          </mxGeometry>
        </mxCell>
        <mxCell id="tsIfKAhvuY_Tdo2SYI6--151" value="" style="shape=tableRow;horizontal=0;startSize=0;swimlaneHead=0;swimlaneBody=0;strokeColor=inherit;top=0;left=0;bottom=0;right=0;collapsible=0;dropTarget=0;fillColor=none;points=[[0,0.5],[1,0.5]];portConstraint=eastwest;" vertex="1" parent="tsIfKAhvuY_Tdo2SYI6--145">
          <mxGeometry y="24" width="150" height="25" as="geometry" />
        </mxCell>
        <mxCell id="tsIfKAhvuY_Tdo2SYI6--152" value="" style="shape=partialRectangle;html=1;whiteSpace=wrap;connectable=0;strokeColor=inherit;overflow=hidden;fillColor=none;top=0;left=0;bottom=0;right=0;pointerEvents=1;" vertex="1" parent="tsIfKAhvuY_Tdo2SYI6--151">
          <mxGeometry width="38" height="25" as="geometry">
            <mxRectangle width="38" height="25" as="alternateBounds" />
          </mxGeometry>
        </mxCell>
        <mxCell id="tsIfKAhvuY_Tdo2SYI6--153" value="" style="shape=partialRectangle;html=1;whiteSpace=wrap;connectable=0;strokeColor=inherit;overflow=hidden;fillColor=none;top=0;left=0;bottom=0;right=0;pointerEvents=1;" vertex="1" parent="tsIfKAhvuY_Tdo2SYI6--151">
          <mxGeometry x="38" width="37" height="25" as="geometry">
            <mxRectangle width="37" height="25" as="alternateBounds" />
          </mxGeometry>
        </mxCell>
        <mxCell id="tsIfKAhvuY_Tdo2SYI6--154" value="" style="shape=partialRectangle;html=1;whiteSpace=wrap;connectable=0;strokeColor=inherit;overflow=hidden;fillColor=none;top=0;left=0;bottom=0;right=0;pointerEvents=1;" vertex="1" parent="tsIfKAhvuY_Tdo2SYI6--151">
          <mxGeometry x="75" width="38" height="25" as="geometry">
            <mxRectangle width="38" height="25" as="alternateBounds" />
          </mxGeometry>
        </mxCell>
        <mxCell id="tsIfKAhvuY_Tdo2SYI6--155" value="" style="shape=partialRectangle;html=1;whiteSpace=wrap;connectable=0;strokeColor=inherit;overflow=hidden;fillColor=none;top=0;left=0;bottom=0;right=0;pointerEvents=1;" vertex="1" parent="tsIfKAhvuY_Tdo2SYI6--151">
          <mxGeometry x="113" width="37" height="25" as="geometry">
            <mxRectangle width="37" height="25" as="alternateBounds" />
          </mxGeometry>
        </mxCell>
        <mxCell id="tsIfKAhvuY_Tdo2SYI6--156" value="" style="shape=tableRow;horizontal=0;startSize=0;swimlaneHead=0;swimlaneBody=0;strokeColor=inherit;top=0;left=0;bottom=0;right=0;collapsible=0;dropTarget=0;fillColor=none;points=[[0,0.5],[1,0.5]];portConstraint=eastwest;" vertex="1" parent="tsIfKAhvuY_Tdo2SYI6--145">
          <mxGeometry y="49" width="150" height="24" as="geometry" />
        </mxCell>
        <mxCell id="tsIfKAhvuY_Tdo2SYI6--157" value="" style="shape=partialRectangle;html=1;whiteSpace=wrap;connectable=0;strokeColor=inherit;overflow=hidden;fillColor=none;top=0;left=0;bottom=0;right=0;pointerEvents=1;" vertex="1" parent="tsIfKAhvuY_Tdo2SYI6--156">
          <mxGeometry width="38" height="24" as="geometry">
            <mxRectangle width="38" height="24" as="alternateBounds" />
          </mxGeometry>
        </mxCell>
        <mxCell id="tsIfKAhvuY_Tdo2SYI6--158" value="" style="shape=partialRectangle;html=1;whiteSpace=wrap;connectable=0;strokeColor=inherit;overflow=hidden;fillColor=none;top=0;left=0;bottom=0;right=0;pointerEvents=1;" vertex="1" parent="tsIfKAhvuY_Tdo2SYI6--156">
          <mxGeometry x="38" width="37" height="24" as="geometry">
            <mxRectangle width="37" height="24" as="alternateBounds" />
          </mxGeometry>
        </mxCell>
        <mxCell id="tsIfKAhvuY_Tdo2SYI6--159" value="" style="shape=partialRectangle;html=1;whiteSpace=wrap;connectable=0;strokeColor=inherit;overflow=hidden;fillColor=none;top=0;left=0;bottom=0;right=0;pointerEvents=1;" vertex="1" parent="tsIfKAhvuY_Tdo2SYI6--156">
          <mxGeometry x="75" width="38" height="24" as="geometry">
            <mxRectangle width="38" height="24" as="alternateBounds" />
          </mxGeometry>
        </mxCell>
        <mxCell id="tsIfKAhvuY_Tdo2SYI6--160" value="" style="shape=partialRectangle;html=1;whiteSpace=wrap;connectable=0;strokeColor=inherit;overflow=hidden;fillColor=none;top=0;left=0;bottom=0;right=0;pointerEvents=1;" vertex="1" parent="tsIfKAhvuY_Tdo2SYI6--156">
          <mxGeometry x="113" width="37" height="24" as="geometry">
            <mxRectangle width="37" height="24" as="alternateBounds" />
          </mxGeometry>
        </mxCell>
        <mxCell id="tsIfKAhvuY_Tdo2SYI6--161" value="" style="shape=tableRow;horizontal=0;startSize=0;swimlaneHead=0;swimlaneBody=0;strokeColor=inherit;top=0;left=0;bottom=0;right=0;collapsible=0;dropTarget=0;fillColor=none;points=[[0,0.5],[1,0.5]];portConstraint=eastwest;" vertex="1" parent="tsIfKAhvuY_Tdo2SYI6--145">
          <mxGeometry y="73" width="150" height="24" as="geometry" />
        </mxCell>
        <mxCell id="tsIfKAhvuY_Tdo2SYI6--162" value="" style="shape=partialRectangle;html=1;whiteSpace=wrap;connectable=0;strokeColor=inherit;overflow=hidden;fillColor=none;top=0;left=0;bottom=0;right=0;pointerEvents=1;" vertex="1" parent="tsIfKAhvuY_Tdo2SYI6--161">
          <mxGeometry width="38" height="24" as="geometry">
            <mxRectangle width="38" height="24" as="alternateBounds" />
          </mxGeometry>
        </mxCell>
        <mxCell id="tsIfKAhvuY_Tdo2SYI6--163" value="" style="shape=partialRectangle;html=1;whiteSpace=wrap;connectable=0;strokeColor=inherit;overflow=hidden;fillColor=none;top=0;left=0;bottom=0;right=0;pointerEvents=1;" vertex="1" parent="tsIfKAhvuY_Tdo2SYI6--161">
          <mxGeometry x="38" width="37" height="24" as="geometry">
            <mxRectangle width="37" height="24" as="alternateBounds" />
          </mxGeometry>
        </mxCell>
        <mxCell id="tsIfKAhvuY_Tdo2SYI6--164" value="" style="shape=partialRectangle;html=1;whiteSpace=wrap;connectable=0;strokeColor=inherit;overflow=hidden;fillColor=none;top=0;left=0;bottom=0;right=0;pointerEvents=1;" vertex="1" parent="tsIfKAhvuY_Tdo2SYI6--161">
          <mxGeometry x="75" width="38" height="24" as="geometry">
            <mxRectangle width="38" height="24" as="alternateBounds" />
          </mxGeometry>
        </mxCell>
        <mxCell id="tsIfKAhvuY_Tdo2SYI6--165" value="" style="shape=partialRectangle;html=1;whiteSpace=wrap;connectable=0;strokeColor=inherit;overflow=hidden;fillColor=none;top=0;left=0;bottom=0;right=0;pointerEvents=1;" vertex="1" parent="tsIfKAhvuY_Tdo2SYI6--161">
          <mxGeometry x="113" width="37" height="24" as="geometry">
            <mxRectangle width="37" height="24" as="alternateBounds" />
          </mxGeometry>
        </mxCell>
        <mxCell id="tsIfKAhvuY_Tdo2SYI6--169" value="" style="shape=table;startSize=0;container=1;collapsible=0;childLayout=tableLayout;" vertex="1" parent="1">
          <mxGeometry x="400" y="112" width="150" height="23" as="geometry" />
        </mxCell>
        <mxCell id="tsIfKAhvuY_Tdo2SYI6--170" value="" style="shape=tableRow;horizontal=0;startSize=0;swimlaneHead=0;swimlaneBody=0;strokeColor=inherit;top=0;left=0;bottom=0;right=0;collapsible=0;dropTarget=0;fillColor=none;points=[[0,0.5],[1,0.5]];portConstraint=eastwest;" vertex="1" parent="tsIfKAhvuY_Tdo2SYI6--169">
          <mxGeometry width="150" height="23" as="geometry" />
        </mxCell>
        <mxCell id="tsIfKAhvuY_Tdo2SYI6--171" value="" style="shape=partialRectangle;html=1;whiteSpace=wrap;connectable=0;strokeColor=inherit;overflow=hidden;fillColor=none;top=0;left=0;bottom=0;right=0;pointerEvents=1;" vertex="1" parent="tsIfKAhvuY_Tdo2SYI6--170">
          <mxGeometry width="19" height="23" as="geometry">
            <mxRectangle width="19" height="23" as="alternateBounds" />
          </mxGeometry>
        </mxCell>
        <mxCell id="tsIfKAhvuY_Tdo2SYI6--172" value="" style="shape=partialRectangle;html=1;whiteSpace=wrap;connectable=0;strokeColor=inherit;overflow=hidden;fillColor=none;top=0;left=0;bottom=0;right=0;pointerEvents=1;" vertex="1" parent="tsIfKAhvuY_Tdo2SYI6--170">
          <mxGeometry x="19" width="19" height="23" as="geometry">
            <mxRectangle width="19" height="23" as="alternateBounds" />
          </mxGeometry>
        </mxCell>
        <mxCell id="tsIfKAhvuY_Tdo2SYI6--173" value="" style="shape=partialRectangle;html=1;whiteSpace=wrap;connectable=0;strokeColor=inherit;overflow=hidden;fillColor=none;top=0;left=0;bottom=0;right=0;pointerEvents=1;" vertex="1" parent="tsIfKAhvuY_Tdo2SYI6--170">
          <mxGeometry x="38" width="19" height="23" as="geometry">
            <mxRectangle width="19" height="23" as="alternateBounds" />
          </mxGeometry>
        </mxCell>
        <mxCell id="tsIfKAhvuY_Tdo2SYI6--174" value="" style="shape=partialRectangle;html=1;whiteSpace=wrap;connectable=0;strokeColor=inherit;overflow=hidden;fillColor=none;top=0;left=0;bottom=0;right=0;pointerEvents=1;" vertex="1" parent="tsIfKAhvuY_Tdo2SYI6--170">
          <mxGeometry x="57" width="18" height="23" as="geometry">
            <mxRectangle width="18" height="23" as="alternateBounds" />
          </mxGeometry>
        </mxCell>
        <mxCell id="tsIfKAhvuY_Tdo2SYI6--175" value="" style="shape=partialRectangle;html=1;whiteSpace=wrap;connectable=0;strokeColor=inherit;overflow=hidden;fillColor=none;top=0;left=0;bottom=0;right=0;pointerEvents=1;" vertex="1" parent="tsIfKAhvuY_Tdo2SYI6--170">
          <mxGeometry x="75" width="16" height="23" as="geometry">
            <mxRectangle width="16" height="23" as="alternateBounds" />
          </mxGeometry>
        </mxCell>
        <mxCell id="tsIfKAhvuY_Tdo2SYI6--176" value="" style="shape=partialRectangle;html=1;whiteSpace=wrap;connectable=0;strokeColor=inherit;overflow=hidden;fillColor=none;top=0;left=0;bottom=0;right=0;pointerEvents=1;" vertex="1" parent="tsIfKAhvuY_Tdo2SYI6--170">
          <mxGeometry x="91" width="22" height="23" as="geometry">
            <mxRectangle width="22" height="23" as="alternateBounds" />
          </mxGeometry>
        </mxCell>
        <mxCell id="tsIfKAhvuY_Tdo2SYI6--177" value="" style="shape=partialRectangle;html=1;whiteSpace=wrap;connectable=0;strokeColor=inherit;overflow=hidden;fillColor=none;top=0;left=0;bottom=0;right=0;pointerEvents=1;" vertex="1" parent="tsIfKAhvuY_Tdo2SYI6--170">
          <mxGeometry x="113" width="19" height="23" as="geometry">
            <mxRectangle width="19" height="23" as="alternateBounds" />
          </mxGeometry>
        </mxCell>
        <mxCell id="tsIfKAhvuY_Tdo2SYI6--178" value="" style="shape=partialRectangle;html=1;whiteSpace=wrap;connectable=0;strokeColor=inherit;overflow=hidden;fillColor=none;top=0;left=0;bottom=0;right=0;pointerEvents=1;" vertex="1" parent="tsIfKAhvuY_Tdo2SYI6--170">
          <mxGeometry x="132" width="18" height="23" as="geometry">
            <mxRectangle width="18" height="23" as="alternateBounds" />
          </mxGeometry>
        </mxCell>
        <mxCell id="tsIfKAhvuY_Tdo2SYI6--186" style="edgeStyle=orthogonalEdgeStyle;rounded=0;orthogonalLoop=1;jettySize=auto;html=1;curved=1;exitX=0;exitY=0.5;exitDx=0;exitDy=0;" edge="1" parent="1" source="tsIfKAhvuY_Tdo2SYI6--180" target="tsIfKAhvuY_Tdo2SYI6--98">
          <mxGeometry relative="1" as="geometry">
            <Array as="points">
              <mxPoint x="390" y="247" />
              <mxPoint x="390" y="282" />
              <mxPoint x="300" y="282" />
            </Array>
          </mxGeometry>
        </mxCell>
        <mxCell id="tsIfKAhvuY_Tdo2SYI6--179" value="" style="shape=table;startSize=0;container=1;collapsible=0;childLayout=tableLayout;" vertex="1" parent="1">
          <mxGeometry x="400" y="232" width="150" height="30" as="geometry" />
        </mxCell>
        <mxCell id="tsIfKAhvuY_Tdo2SYI6--180" value="" style="shape=tableRow;horizontal=0;startSize=0;swimlaneHead=0;swimlaneBody=0;strokeColor=inherit;top=0;left=0;bottom=0;right=0;collapsible=0;dropTarget=0;fillColor=none;points=[[0,0.5],[1,0.5]];portConstraint=eastwest;" vertex="1" parent="tsIfKAhvuY_Tdo2SYI6--179">
          <mxGeometry width="150" height="30" as="geometry" />
        </mxCell>
        <mxCell id="tsIfKAhvuY_Tdo2SYI6--181" value="overflow" style="shape=partialRectangle;html=1;whiteSpace=wrap;connectable=0;strokeColor=inherit;overflow=hidden;fillColor=none;top=0;left=0;bottom=0;right=0;pointerEvents=1;" vertex="1" parent="tsIfKAhvuY_Tdo2SYI6--180">
          <mxGeometry width="150" height="30" as="geometry">
            <mxRectangle width="150" height="30" as="alternateBounds" />
          </mxGeometry>
        </mxCell>
        <mxCell id="tsIfKAhvuY_Tdo2SYI6--184" value="溢出桶" style="text;html=1;align=center;verticalAlign=middle;resizable=0;points=[];autosize=1;strokeColor=none;fillColor=none;" vertex="1" parent="1">
          <mxGeometry x="445" y="75" width="60" height="30" as="geometry" />
        </mxCell>
        <mxCell id="tsIfKAhvuY_Tdo2SYI6--187" value="" style="shape=partialRectangle;html=1;whiteSpace=wrap;connectable=0;strokeColor=inherit;overflow=hidden;fillColor=none;top=0;left=0;bottom=0;right=0;pointerEvents=1;" vertex="1" parent="1">
          <mxGeometry x="-100" y="432" width="90" height="40" as="geometry">
            <mxRectangle width="90" height="40" as="alternateBounds" />
          </mxGeometry>
        </mxCell>
        <mxCell id="tsIfKAhvuY_Tdo2SYI6--188" value="" style="shape=table;startSize=0;container=1;collapsible=0;childLayout=tableLayout;" vertex="1" parent="1">
          <mxGeometry x="-103" y="432" width="93" height="40" as="geometry" />
        </mxCell>
        <mxCell id="tsIfKAhvuY_Tdo2SYI6--189" value="" style="shape=tableRow;horizontal=0;startSize=0;swimlaneHead=0;swimlaneBody=0;strokeColor=inherit;top=0;left=0;bottom=0;right=0;collapsible=0;dropTarget=0;fillColor=none;points=[[0,0.5],[1,0.5]];portConstraint=eastwest;" vertex="1" parent="tsIfKAhvuY_Tdo2SYI6--188">
          <mxGeometry width="93" height="40" as="geometry" />
        </mxCell>
        <mxCell id="tsIfKAhvuY_Tdo2SYI6--190" value="&lt;font style=&quot;font-size: 18px;&quot;&gt;extra&lt;/font&gt;" style="shape=partialRectangle;html=1;whiteSpace=wrap;connectable=0;strokeColor=inherit;overflow=hidden;fillColor=none;top=0;left=0;bottom=0;right=0;pointerEvents=1;" vertex="1" parent="tsIfKAhvuY_Tdo2SYI6--189">
          <mxGeometry width="93" height="40" as="geometry">
            <mxRectangle width="93" height="40" as="alternateBounds" />
          </mxGeometry>
        </mxCell>
        <mxCell id="tsIfKAhvuY_Tdo2SYI6--191" value="记录使用溢出桶的数量" style="text;html=1;align=center;verticalAlign=middle;resizable=0;points=[];autosize=1;strokeColor=none;fillColor=none;" vertex="1" parent="1">
          <mxGeometry x="-260" y="242" width="140" height="30" as="geometry" />
        </mxCell>
        <mxCell id="tsIfKAhvuY_Tdo2SYI6--195" style="edgeStyle=orthogonalEdgeStyle;curved=1;rounded=0;orthogonalLoop=1;jettySize=auto;html=1;exitX=1;exitY=0.5;exitDx=0;exitDy=0;entryX=0.523;entryY=0;entryDx=0;entryDy=0;entryPerimeter=0;" edge="1" parent="1" source="tsIfKAhvuY_Tdo2SYI6--189" target="tsIfKAhvuY_Tdo2SYI6--103">
          <mxGeometry relative="1" as="geometry" />
        </mxCell>
        <mxCell id="tsIfKAhvuY_Tdo2SYI6--196" value="扩容阶段存储旧桶用到溢出桶的地址" style="text;html=1;align=center;verticalAlign=middle;resizable=0;points=[];autosize=1;strokeColor=none;fillColor=none;" vertex="1" parent="1">
          <mxGeometry x="-323" y="617" width="220" height="30" as="geometry" />
        </mxCell>
        <mxCell id="tsIfKAhvuY_Tdo2SYI6--267" value="" style="shape=table;startSize=0;container=1;collapsible=0;childLayout=tableLayout;" vertex="1" parent="1">
          <mxGeometry x="380" y="473" width="150" height="97" as="geometry" />
        </mxCell>
        <mxCell id="tsIfKAhvuY_Tdo2SYI6--268" value="" style="shape=tableRow;horizontal=0;startSize=0;swimlaneHead=0;swimlaneBody=0;strokeColor=inherit;top=0;left=0;bottom=0;right=0;collapsible=0;dropTarget=0;fillColor=none;points=[[0,0.5],[1,0.5]];portConstraint=eastwest;" vertex="1" parent="tsIfKAhvuY_Tdo2SYI6--267">
          <mxGeometry width="150" height="24" as="geometry" />
        </mxCell>
        <mxCell id="tsIfKAhvuY_Tdo2SYI6--269" value="key" style="shape=partialRectangle;html=1;whiteSpace=wrap;connectable=0;strokeColor=inherit;overflow=hidden;fillColor=none;top=0;left=0;bottom=0;right=0;pointerEvents=1;" vertex="1" parent="tsIfKAhvuY_Tdo2SYI6--268">
          <mxGeometry width="38" height="24" as="geometry">
            <mxRectangle width="38" height="24" as="alternateBounds" />
          </mxGeometry>
        </mxCell>
        <mxCell id="tsIfKAhvuY_Tdo2SYI6--270" value="key" style="shape=partialRectangle;html=1;whiteSpace=wrap;connectable=0;strokeColor=inherit;overflow=hidden;fillColor=none;top=0;left=0;bottom=0;right=0;pointerEvents=1;" vertex="1" parent="tsIfKAhvuY_Tdo2SYI6--268">
          <mxGeometry x="38" width="37" height="24" as="geometry">
            <mxRectangle width="37" height="24" as="alternateBounds" />
          </mxGeometry>
        </mxCell>
        <mxCell id="tsIfKAhvuY_Tdo2SYI6--271" value="key" style="shape=partialRectangle;html=1;whiteSpace=wrap;connectable=0;strokeColor=inherit;overflow=hidden;fillColor=none;top=0;left=0;bottom=0;right=0;pointerEvents=1;" vertex="1" parent="tsIfKAhvuY_Tdo2SYI6--268">
          <mxGeometry x="75" width="35" height="24" as="geometry">
            <mxRectangle width="35" height="24" as="alternateBounds" />
          </mxGeometry>
        </mxCell>
        <mxCell id="tsIfKAhvuY_Tdo2SYI6--272" value="key" style="shape=partialRectangle;html=1;whiteSpace=wrap;connectable=0;strokeColor=inherit;overflow=hidden;fillColor=none;top=0;left=0;bottom=0;right=0;pointerEvents=1;" vertex="1" parent="tsIfKAhvuY_Tdo2SYI6--268">
          <mxGeometry x="110" width="40" height="24" as="geometry">
            <mxRectangle width="40" height="24" as="alternateBounds" />
          </mxGeometry>
        </mxCell>
        <mxCell id="tsIfKAhvuY_Tdo2SYI6--273" value="" style="shape=tableRow;horizontal=0;startSize=0;swimlaneHead=0;swimlaneBody=0;strokeColor=inherit;top=0;left=0;bottom=0;right=0;collapsible=0;dropTarget=0;fillColor=none;points=[[0,0.5],[1,0.5]];portConstraint=eastwest;" vertex="1" parent="tsIfKAhvuY_Tdo2SYI6--267">
          <mxGeometry y="24" width="150" height="25" as="geometry" />
        </mxCell>
        <mxCell id="tsIfKAhvuY_Tdo2SYI6--274" value="key" style="shape=partialRectangle;html=1;whiteSpace=wrap;connectable=0;strokeColor=inherit;overflow=hidden;fillColor=none;top=0;left=0;bottom=0;right=0;pointerEvents=1;" vertex="1" parent="tsIfKAhvuY_Tdo2SYI6--273">
          <mxGeometry width="38" height="25" as="geometry">
            <mxRectangle width="38" height="25" as="alternateBounds" />
          </mxGeometry>
        </mxCell>
        <mxCell id="tsIfKAhvuY_Tdo2SYI6--275" value="key" style="shape=partialRectangle;html=1;whiteSpace=wrap;connectable=0;strokeColor=inherit;overflow=hidden;fillColor=none;top=0;left=0;bottom=0;right=0;pointerEvents=1;" vertex="1" parent="tsIfKAhvuY_Tdo2SYI6--273">
          <mxGeometry x="38" width="37" height="25" as="geometry">
            <mxRectangle width="37" height="25" as="alternateBounds" />
          </mxGeometry>
        </mxCell>
        <mxCell id="tsIfKAhvuY_Tdo2SYI6--276" value="key" style="shape=partialRectangle;html=1;whiteSpace=wrap;connectable=0;strokeColor=inherit;overflow=hidden;fillColor=none;top=0;left=0;bottom=0;right=0;pointerEvents=1;" vertex="1" parent="tsIfKAhvuY_Tdo2SYI6--273">
          <mxGeometry x="75" width="35" height="25" as="geometry">
            <mxRectangle width="35" height="25" as="alternateBounds" />
          </mxGeometry>
        </mxCell>
        <mxCell id="tsIfKAhvuY_Tdo2SYI6--277" value="key" style="shape=partialRectangle;html=1;whiteSpace=wrap;connectable=0;strokeColor=inherit;overflow=hidden;fillColor=none;top=0;left=0;bottom=0;right=0;pointerEvents=1;" vertex="1" parent="tsIfKAhvuY_Tdo2SYI6--273">
          <mxGeometry x="110" width="40" height="25" as="geometry">
            <mxRectangle width="40" height="25" as="alternateBounds" />
          </mxGeometry>
        </mxCell>
        <mxCell id="tsIfKAhvuY_Tdo2SYI6--278" value="" style="shape=tableRow;horizontal=0;startSize=0;swimlaneHead=0;swimlaneBody=0;strokeColor=inherit;top=0;left=0;bottom=0;right=0;collapsible=0;dropTarget=0;fillColor=none;points=[[0,0.5],[1,0.5]];portConstraint=eastwest;" vertex="1" parent="tsIfKAhvuY_Tdo2SYI6--267">
          <mxGeometry y="49" width="150" height="24" as="geometry" />
        </mxCell>
        <mxCell id="tsIfKAhvuY_Tdo2SYI6--279" value="val" style="shape=partialRectangle;html=1;whiteSpace=wrap;connectable=0;strokeColor=inherit;overflow=hidden;fillColor=none;top=0;left=0;bottom=0;right=0;pointerEvents=1;" vertex="1" parent="tsIfKAhvuY_Tdo2SYI6--278">
          <mxGeometry width="38" height="24" as="geometry">
            <mxRectangle width="38" height="24" as="alternateBounds" />
          </mxGeometry>
        </mxCell>
        <mxCell id="tsIfKAhvuY_Tdo2SYI6--280" value="val" style="shape=partialRectangle;html=1;whiteSpace=wrap;connectable=0;strokeColor=inherit;overflow=hidden;fillColor=none;top=0;left=0;bottom=0;right=0;pointerEvents=1;" vertex="1" parent="tsIfKAhvuY_Tdo2SYI6--278">
          <mxGeometry x="38" width="37" height="24" as="geometry">
            <mxRectangle width="37" height="24" as="alternateBounds" />
          </mxGeometry>
        </mxCell>
        <mxCell id="tsIfKAhvuY_Tdo2SYI6--281" value="val" style="shape=partialRectangle;html=1;whiteSpace=wrap;connectable=0;strokeColor=inherit;overflow=hidden;fillColor=none;top=0;left=0;bottom=0;right=0;pointerEvents=1;" vertex="1" parent="tsIfKAhvuY_Tdo2SYI6--278">
          <mxGeometry x="75" width="35" height="24" as="geometry">
            <mxRectangle width="35" height="24" as="alternateBounds" />
          </mxGeometry>
        </mxCell>
        <mxCell id="tsIfKAhvuY_Tdo2SYI6--282" value="val" style="shape=partialRectangle;html=1;whiteSpace=wrap;connectable=0;strokeColor=inherit;overflow=hidden;fillColor=none;top=0;left=0;bottom=0;right=0;pointerEvents=1;" vertex="1" parent="tsIfKAhvuY_Tdo2SYI6--278">
          <mxGeometry x="110" width="40" height="24" as="geometry">
            <mxRectangle width="40" height="24" as="alternateBounds" />
          </mxGeometry>
        </mxCell>
        <mxCell id="tsIfKAhvuY_Tdo2SYI6--283" value="" style="shape=tableRow;horizontal=0;startSize=0;swimlaneHead=0;swimlaneBody=0;strokeColor=inherit;top=0;left=0;bottom=0;right=0;collapsible=0;dropTarget=0;fillColor=none;points=[[0,0.5],[1,0.5]];portConstraint=eastwest;" vertex="1" parent="tsIfKAhvuY_Tdo2SYI6--267">
          <mxGeometry y="73" width="150" height="24" as="geometry" />
        </mxCell>
        <mxCell id="tsIfKAhvuY_Tdo2SYI6--284" value="val" style="shape=partialRectangle;html=1;whiteSpace=wrap;connectable=0;strokeColor=inherit;overflow=hidden;fillColor=none;top=0;left=0;bottom=0;right=0;pointerEvents=1;" vertex="1" parent="tsIfKAhvuY_Tdo2SYI6--283">
          <mxGeometry width="38" height="24" as="geometry">
            <mxRectangle width="38" height="24" as="alternateBounds" />
          </mxGeometry>
        </mxCell>
        <mxCell id="tsIfKAhvuY_Tdo2SYI6--285" value="val" style="shape=partialRectangle;html=1;whiteSpace=wrap;connectable=0;strokeColor=inherit;overflow=hidden;fillColor=none;top=0;left=0;bottom=0;right=0;pointerEvents=1;" vertex="1" parent="tsIfKAhvuY_Tdo2SYI6--283">
          <mxGeometry x="38" width="37" height="24" as="geometry">
            <mxRectangle width="37" height="24" as="alternateBounds" />
          </mxGeometry>
        </mxCell>
        <mxCell id="tsIfKAhvuY_Tdo2SYI6--286" value="val" style="shape=partialRectangle;html=1;whiteSpace=wrap;connectable=0;strokeColor=inherit;overflow=hidden;fillColor=none;top=0;left=0;bottom=0;right=0;pointerEvents=1;" vertex="1" parent="tsIfKAhvuY_Tdo2SYI6--283">
          <mxGeometry x="75" width="35" height="24" as="geometry">
            <mxRectangle width="35" height="24" as="alternateBounds" />
          </mxGeometry>
        </mxCell>
        <mxCell id="tsIfKAhvuY_Tdo2SYI6--287" value="val" style="shape=partialRectangle;html=1;whiteSpace=wrap;connectable=0;strokeColor=inherit;overflow=hidden;fillColor=none;top=0;left=0;bottom=0;right=0;pointerEvents=1;" vertex="1" parent="tsIfKAhvuY_Tdo2SYI6--283">
          <mxGeometry x="110" width="40" height="24" as="geometry">
            <mxRectangle width="40" height="24" as="alternateBounds" />
          </mxGeometry>
        </mxCell>
        <mxCell id="tsIfKAhvuY_Tdo2SYI6--288" value="" style="shape=table;startSize=0;container=1;collapsible=0;childLayout=tableLayout;" vertex="1" parent="1">
          <mxGeometry x="380" y="450" width="150" height="23" as="geometry" />
        </mxCell>
        <mxCell id="tsIfKAhvuY_Tdo2SYI6--289" value="" style="shape=tableRow;horizontal=0;startSize=0;swimlaneHead=0;swimlaneBody=0;strokeColor=inherit;top=0;left=0;bottom=0;right=0;collapsible=0;dropTarget=0;fillColor=none;points=[[0,0.5],[1,0.5]];portConstraint=eastwest;" vertex="1" parent="tsIfKAhvuY_Tdo2SYI6--288">
          <mxGeometry width="150" height="23" as="geometry" />
        </mxCell>
        <mxCell id="tsIfKAhvuY_Tdo2SYI6--290" value="" style="shape=partialRectangle;html=1;whiteSpace=wrap;connectable=0;strokeColor=inherit;overflow=hidden;fillColor=none;top=0;left=0;bottom=0;right=0;pointerEvents=1;" vertex="1" parent="tsIfKAhvuY_Tdo2SYI6--289">
          <mxGeometry width="19" height="23" as="geometry">
            <mxRectangle width="19" height="23" as="alternateBounds" />
          </mxGeometry>
        </mxCell>
        <mxCell id="tsIfKAhvuY_Tdo2SYI6--291" value="" style="shape=partialRectangle;html=1;whiteSpace=wrap;connectable=0;strokeColor=inherit;overflow=hidden;fillColor=none;top=0;left=0;bottom=0;right=0;pointerEvents=1;" vertex="1" parent="tsIfKAhvuY_Tdo2SYI6--289">
          <mxGeometry x="19" width="19" height="23" as="geometry">
            <mxRectangle width="19" height="23" as="alternateBounds" />
          </mxGeometry>
        </mxCell>
        <mxCell id="tsIfKAhvuY_Tdo2SYI6--292" value="" style="shape=partialRectangle;html=1;whiteSpace=wrap;connectable=0;strokeColor=inherit;overflow=hidden;fillColor=none;top=0;left=0;bottom=0;right=0;pointerEvents=1;" vertex="1" parent="tsIfKAhvuY_Tdo2SYI6--289">
          <mxGeometry x="38" width="19" height="23" as="geometry">
            <mxRectangle width="19" height="23" as="alternateBounds" />
          </mxGeometry>
        </mxCell>
        <mxCell id="tsIfKAhvuY_Tdo2SYI6--293" value="" style="shape=partialRectangle;html=1;whiteSpace=wrap;connectable=0;strokeColor=inherit;overflow=hidden;fillColor=none;top=0;left=0;bottom=0;right=0;pointerEvents=1;" vertex="1" parent="tsIfKAhvuY_Tdo2SYI6--289">
          <mxGeometry x="57" width="18" height="23" as="geometry">
            <mxRectangle width="18" height="23" as="alternateBounds" />
          </mxGeometry>
        </mxCell>
        <mxCell id="tsIfKAhvuY_Tdo2SYI6--294" value="" style="shape=partialRectangle;html=1;whiteSpace=wrap;connectable=0;strokeColor=inherit;overflow=hidden;fillColor=none;top=0;left=0;bottom=0;right=0;pointerEvents=1;" vertex="1" parent="tsIfKAhvuY_Tdo2SYI6--289">
          <mxGeometry x="75" width="16" height="23" as="geometry">
            <mxRectangle width="16" height="23" as="alternateBounds" />
          </mxGeometry>
        </mxCell>
        <mxCell id="tsIfKAhvuY_Tdo2SYI6--295" value="" style="shape=partialRectangle;html=1;whiteSpace=wrap;connectable=0;strokeColor=inherit;overflow=hidden;fillColor=none;top=0;left=0;bottom=0;right=0;pointerEvents=1;" vertex="1" parent="tsIfKAhvuY_Tdo2SYI6--289">
          <mxGeometry x="91" width="22" height="23" as="geometry">
            <mxRectangle width="22" height="23" as="alternateBounds" />
          </mxGeometry>
        </mxCell>
        <mxCell id="tsIfKAhvuY_Tdo2SYI6--296" value="" style="shape=partialRectangle;html=1;whiteSpace=wrap;connectable=0;strokeColor=inherit;overflow=hidden;fillColor=none;top=0;left=0;bottom=0;right=0;pointerEvents=1;" vertex="1" parent="tsIfKAhvuY_Tdo2SYI6--289">
          <mxGeometry x="113" width="17" height="23" as="geometry">
            <mxRectangle width="17" height="23" as="alternateBounds" />
          </mxGeometry>
        </mxCell>
        <mxCell id="tsIfKAhvuY_Tdo2SYI6--297" value="" style="shape=partialRectangle;html=1;whiteSpace=wrap;connectable=0;strokeColor=inherit;overflow=hidden;fillColor=none;top=0;left=0;bottom=0;right=0;pointerEvents=1;" vertex="1" parent="tsIfKAhvuY_Tdo2SYI6--289">
          <mxGeometry x="130" width="20" height="23" as="geometry">
            <mxRectangle width="20" height="23" as="alternateBounds" />
          </mxGeometry>
        </mxCell>
        <mxCell id="tsIfKAhvuY_Tdo2SYI6--298" value="" style="shape=table;startSize=0;container=1;collapsible=0;childLayout=tableLayout;" vertex="1" parent="1">
          <mxGeometry x="380" y="570" width="150" height="30" as="geometry" />
        </mxCell>
        <mxCell id="tsIfKAhvuY_Tdo2SYI6--299" value="" style="shape=tableRow;horizontal=0;startSize=0;swimlaneHead=0;swimlaneBody=0;strokeColor=inherit;top=0;left=0;bottom=0;right=0;collapsible=0;dropTarget=0;fillColor=none;points=[[0,0.5],[1,0.5]];portConstraint=eastwest;" vertex="1" parent="tsIfKAhvuY_Tdo2SYI6--298">
          <mxGeometry width="150" height="30" as="geometry" />
        </mxCell>
        <mxCell id="tsIfKAhvuY_Tdo2SYI6--300" value="overflow *bmap" style="shape=partialRectangle;html=1;whiteSpace=wrap;connectable=0;strokeColor=inherit;overflow=hidden;fillColor=none;top=0;left=0;bottom=0;right=0;pointerEvents=1;" vertex="1" parent="tsIfKAhvuY_Tdo2SYI6--299">
          <mxGeometry width="150" height="30" as="geometry">
            <mxRectangle width="150" height="30" as="alternateBounds" />
          </mxGeometry>
        </mxCell>
        <mxCell id="tsIfKAhvuY_Tdo2SYI6--301" value="bmap" style="text;html=1;align=center;verticalAlign=middle;resizable=0;points=[];autosize=1;strokeColor=none;fillColor=none;" vertex="1" parent="1">
          <mxGeometry x="425" y="410" width="50" height="30" as="geometry" />
        </mxCell>
        <mxCell id="tsIfKAhvuY_Tdo2SYI6--312" value="对应hash值高八位" style="text;html=1;align=center;verticalAlign=middle;resizable=0;points=[];autosize=1;strokeColor=none;fillColor=none;" vertex="1" parent="1">
          <mxGeometry x="260" y="450" width="120" height="30" as="geometry" />
        </mxCell>
        <mxCell id="tsIfKAhvuY_Tdo2SYI6--316" value="" style="rounded=0;orthogonalLoop=1;jettySize=auto;html=1;" edge="1" parent="1" source="tsIfKAhvuY_Tdo2SYI6--315" target="tsIfKAhvuY_Tdo2SYI6--312">
          <mxGeometry relative="1" as="geometry" />
        </mxCell>
        <mxCell id="tsIfKAhvuY_Tdo2SYI6--315" value="hash(key)" style="text;html=1;align=center;verticalAlign=middle;resizable=0;points=[];autosize=1;strokeColor=none;fillColor=none;" vertex="1" parent="1">
          <mxGeometry x="160" y="450" width="80" height="30" as="geometry" />
        </mxCell>
        <mxCell id="tsIfKAhvuY_Tdo2SYI6--318" value="&lt;div style=&quot;&quot;&gt;&lt;span style=&quot;font-size: 14px; background-color: initial;&quot;&gt;&lt;span style=&quot;white-space: pre;&quot;&gt;	&lt;/span&gt;&lt;font color=&quot;#ff5e36&quot;&gt;type &lt;/font&gt;hmap&lt;font color=&quot;#ff5e36&quot;&gt; struct&lt;/font&gt; {&lt;/span&gt;&lt;/div&gt;&lt;font style=&quot;&quot;&gt;&lt;span style=&quot;font-size: 14px;&quot;&gt;&lt;div style=&quot;&quot;&gt;&lt;span style=&quot;background-color: initial;&quot;&gt;&lt;span style=&quot;white-space: pre;&quot;&gt;	&lt;/span&gt;&lt;span style=&quot;white-space: pre;&quot;&gt;	&lt;/span&gt;count&amp;nbsp; &amp;nbsp; &amp;nbsp; &amp;nbsp; &amp;nbsp;&lt;font color=&quot;#007fff&quot;&gt;int&amp;nbsp; &lt;/font&gt;// 键值对的个个数&lt;/span&gt;&lt;/div&gt;&lt;/span&gt;&lt;span style=&quot;font-size: 14px;&quot;&gt;	&lt;span style=&quot;white-space: pre;&quot;&gt;	&lt;/span&gt;&lt;span style=&quot;white-space: pre;&quot;&gt;	&lt;/span&gt;flags&amp;nbsp; &amp;nbsp; &amp;nbsp; &amp;nbsp; &amp;nbsp;&amp;nbsp;&lt;font color=&quot;#007fff&quot;&gt;uint8&lt;/font&gt;&lt;/span&gt;&lt;br&gt;&lt;span style=&quot;font-size: 14px;&quot;&gt;	&lt;span style=&quot;white-space: pre;&quot;&gt;	&lt;/span&gt;&lt;span style=&quot;white-space: pre;&quot;&gt;	&lt;/span&gt;B&amp;nbsp; &amp;nbsp; &amp;nbsp; &amp;nbsp; &amp;nbsp; &amp;nbsp; &amp;nbsp; &amp;nbsp;&lt;font color=&quot;#007fff&quot;&gt;uint8&amp;nbsp; &lt;/font&gt;//2^B个桶&lt;/span&gt;&lt;br&gt;&lt;span style=&quot;font-size: 14px;&quot;&gt;	&lt;span style=&quot;white-space: pre;&quot;&gt;	&lt;/span&gt;&lt;span style=&quot;white-space: pre;&quot;&gt;	&lt;/span&gt;noverflow&amp;nbsp; &lt;font color=&quot;#007fff&quot;&gt;uint16 &lt;/font&gt;// 使用溢出桶的数量&lt;/span&gt;&lt;br&gt;&lt;span style=&quot;font-size: 14px;&quot;&gt;	&lt;span style=&quot;white-space: pre;&quot;&gt;	&lt;/span&gt;&lt;span style=&quot;white-space: pre;&quot;&gt;	&lt;/span&gt;hash0&amp;nbsp; &amp;nbsp; &amp;nbsp; &amp;nbsp; &lt;font color=&quot;#007fff&quot;&gt;uint32 &lt;/font&gt;// hash seed&lt;/span&gt;&lt;br&gt;&lt;br&gt;&lt;span style=&quot;font-size: 14px;&quot;&gt;	&lt;span style=&quot;white-space: pre;&quot;&gt;	&lt;/span&gt;&lt;span style=&quot;white-space: pre;&quot;&gt;	&lt;/span&gt;buckets&amp;nbsp; &amp;nbsp; &amp;nbsp; &lt;font color=&quot;#007fff&quot;&gt;unsafe.Pointer&lt;/font&gt; // 桶位置&lt;/span&gt;&lt;br&gt;&lt;span style=&quot;font-size: 14px;&quot;&gt;	&lt;span style=&quot;white-space: pre;&quot;&gt;	&lt;/span&gt;&lt;span style=&quot;white-space: pre;&quot;&gt;	&lt;/span&gt;oldbuckets &lt;font color=&quot;#007fff&quot;&gt;unsafe.Pointer&lt;/font&gt; // 旧桶位置&lt;/span&gt;&lt;br&gt;&lt;span style=&quot;font-size: 14px;&quot;&gt;	&lt;span style=&quot;white-space: pre;&quot;&gt;	&lt;/span&gt;&lt;span style=&quot;white-space: pre;&quot;&gt;	&lt;/span&gt;nevacuate&amp;nbsp; &lt;font color=&quot;#007fff&quot;&gt;uintptr&lt;/font&gt;&amp;nbsp; &amp;nbsp; &amp;nbsp; &amp;nbsp; // 渐进式扩容阶段下一个即将迁移的旧桶编号&amp;nbsp;&lt;/span&gt;&lt;br&gt;&lt;br&gt;&lt;span style=&quot;font-size: 14px;&quot;&gt;	&lt;span style=&quot;white-space: pre;&quot;&gt;	&lt;/span&gt;&lt;span style=&quot;white-space: pre;&quot;&gt;	&lt;/span&gt;extra &lt;font color=&quot;#007fff&quot;&gt;*mapextra&lt;/font&gt; // 指向溢出桶&lt;span style=&quot;white-space: pre;&quot;&gt;	&lt;/span&gt;&lt;span style=&quot;white-space: pre;&quot;&gt;	&lt;/span&gt;&lt;/span&gt;&lt;br&gt;&lt;span style=&quot;font-size: 14px;&quot;&gt;&lt;span style=&quot;white-space: pre;&quot;&gt;	&lt;/span&gt;}&lt;/span&gt;&lt;/font&gt;" style="rounded=1;whiteSpace=wrap;html=1;align=left;" vertex="1" parent="1">
          <mxGeometry x="-720" y="208" width="380" height="432" as="geometry" />
        </mxCell>
      </root>
    </mxGraphModel>
  </diagram>
</mxfile>
